# xmcd
#
# Track frame offsets: 
#        150
#        11209
#        33709
#        53002
#        73011
#        101042
#        115437
#        138832
#        154692
#        172811
#        190273
#        206332
#
# Disc length: 3114 seconds
#
# Revision: 0
# Processed by: cddbd v1.5.2PL0 Copyright (c) Steve Scherf et al.
# Submitted via: ExactAudioCopy v0.99pb4
#
DISCID=a30c280c
DTITLE=Love and Money - Chuck Cannon
DYEAR=2008
DGENRE=Country
TTITLE0=Loose Change
TTITLE1=Money Don't Matter
TTITLE2=Money
TTITLE3=Strange
TTITLE4=Love On You
TTITLE5=Bet Yo Mama
TTITLE6=The Devil is a Woman
TTITLE7=Daddy and the Devil
TTITLE8=Outta This Town
TTITLE9=Walkaway
TTITLE10=Beautiful Girl
TTITLE11=Oh My Lord
EXTD=
EXTT0=
EXTT1=
EXTT2=
EXTT3=
EXTT4=
EXTT5=
EXTT6=
EXTT7=
EXTT8=
EXTT9=
EXTT10=
EXTT11=
PLAYORDER=
